<mxfile host="Electron" modified="2023-09-25T06:43:12.206Z" agent="Mozilla/5.0 (Windows NT 10.0; Win64; x64) AppleWebKit/537.36 (KHTML, like Gecko) draw.io/21.6.8 Chrome/114.0.5735.289 Electron/25.5.0 Safari/537.36" etag="NuDI_rBuv6MR11qDitFs" version="21.6.8" type="device">
  <diagram name="Page-1" id="dLHK4dv-bxMDgjrsHZRd">
    <mxGraphModel dx="1036" dy="623" grid="1" gridSize="10" guides="1" tooltips="1" connect="1" arrows="1" fold="1" page="1" pageScale="1" pageWidth="850" pageHeight="1100" math="0" shadow="0">
      <root>
        <mxCell id="0" />
        <mxCell id="1" parent="0" />
        <mxCell id="ykgIP5ubuIwZVs8_AAUS-1" value="Coustomer" style="shape=umlActor;verticalLabelPosition=bottom;verticalAlign=top;html=1;outlineConnect=0;" vertex="1" parent="1">
          <mxGeometry x="145" y="140" width="30" height="60" as="geometry" />
        </mxCell>
        <mxCell id="ykgIP5ubuIwZVs8_AAUS-2" value=":Search" style="rounded=0;whiteSpace=wrap;html=1;" vertex="1" parent="1">
          <mxGeometry x="360" y="150" width="120" height="40" as="geometry" />
        </mxCell>
        <mxCell id="ykgIP5ubuIwZVs8_AAUS-3" value="Database" style="rounded=0;whiteSpace=wrap;html=1;" vertex="1" parent="1">
          <mxGeometry x="620" y="150" width="120" height="40" as="geometry" />
        </mxCell>
        <mxCell id="ykgIP5ubuIwZVs8_AAUS-4" value="" style="endArrow=none;dashed=1;html=1;dashPattern=1 3;strokeWidth=2;rounded=0;entryX=0.5;entryY=0.5;entryDx=0;entryDy=0;entryPerimeter=0;" edge="1" parent="1" source="ykgIP5ubuIwZVs8_AAUS-8" target="ykgIP5ubuIwZVs8_AAUS-1">
          <mxGeometry width="50" height="50" relative="1" as="geometry">
            <mxPoint x="160" y="590" as="sourcePoint" />
            <mxPoint x="200" y="320" as="targetPoint" />
          </mxGeometry>
        </mxCell>
        <mxCell id="ykgIP5ubuIwZVs8_AAUS-5" value="" style="endArrow=none;dashed=1;html=1;dashPattern=1 3;strokeWidth=2;rounded=0;entryX=0.5;entryY=1;entryDx=0;entryDy=0;" edge="1" parent="1" source="ykgIP5ubuIwZVs8_AAUS-10" target="ykgIP5ubuIwZVs8_AAUS-2">
          <mxGeometry width="50" height="50" relative="1" as="geometry">
            <mxPoint x="420" y="570" as="sourcePoint" />
            <mxPoint x="470" y="280" as="targetPoint" />
          </mxGeometry>
        </mxCell>
        <mxCell id="ykgIP5ubuIwZVs8_AAUS-6" value="" style="endArrow=none;dashed=1;html=1;dashPattern=1 3;strokeWidth=2;rounded=0;entryX=0.5;entryY=1;entryDx=0;entryDy=0;" edge="1" parent="1" source="ykgIP5ubuIwZVs8_AAUS-12" target="ykgIP5ubuIwZVs8_AAUS-3">
          <mxGeometry width="50" height="50" relative="1" as="geometry">
            <mxPoint x="680" y="560" as="sourcePoint" />
            <mxPoint x="680" y="340" as="targetPoint" />
          </mxGeometry>
        </mxCell>
        <mxCell id="ykgIP5ubuIwZVs8_AAUS-7" value="" style="endArrow=none;dashed=1;html=1;dashPattern=1 3;strokeWidth=2;rounded=0;entryX=0.5;entryY=0.5;entryDx=0;entryDy=0;entryPerimeter=0;" edge="1" parent="1" target="ykgIP5ubuIwZVs8_AAUS-8">
          <mxGeometry width="50" height="50" relative="1" as="geometry">
            <mxPoint x="160" y="420" as="sourcePoint" />
            <mxPoint x="160" y="170" as="targetPoint" />
          </mxGeometry>
        </mxCell>
        <mxCell id="ykgIP5ubuIwZVs8_AAUS-13" style="edgeStyle=elbowEdgeStyle;rounded=0;orthogonalLoop=1;jettySize=auto;html=1;elbow=vertical;curved=0;" edge="1" parent="1">
          <mxGeometry relative="1" as="geometry">
            <mxPoint x="165" y="283" as="sourcePoint" />
            <mxPoint x="415" y="283" as="targetPoint" />
          </mxGeometry>
        </mxCell>
        <mxCell id="ykgIP5ubuIwZVs8_AAUS-8" value="" style="html=1;points=[];perimeter=orthogonalPerimeter;outlineConnect=0;targetShapes=umlLifeline;portConstraint=eastwest;newEdgeStyle={&quot;edgeStyle&quot;:&quot;elbowEdgeStyle&quot;,&quot;elbow&quot;:&quot;vertical&quot;,&quot;curved&quot;:0,&quot;rounded&quot;:0};" vertex="1" parent="1">
          <mxGeometry x="155" y="240" width="10" height="140" as="geometry" />
        </mxCell>
        <mxCell id="ykgIP5ubuIwZVs8_AAUS-9" value="" style="endArrow=none;dashed=1;html=1;dashPattern=1 3;strokeWidth=2;rounded=0;entryX=0.5;entryY=1;entryDx=0;entryDy=0;" edge="1" parent="1" target="ykgIP5ubuIwZVs8_AAUS-10">
          <mxGeometry width="50" height="50" relative="1" as="geometry">
            <mxPoint x="420" y="430" as="sourcePoint" />
            <mxPoint x="420" y="190" as="targetPoint" />
          </mxGeometry>
        </mxCell>
        <mxCell id="ykgIP5ubuIwZVs8_AAUS-15" style="edgeStyle=elbowEdgeStyle;rounded=0;orthogonalLoop=1;jettySize=auto;html=1;elbow=vertical;curved=0;" edge="1" parent="1">
          <mxGeometry relative="1" as="geometry">
            <mxPoint x="425" y="296" as="sourcePoint" />
            <mxPoint x="675" y="296" as="targetPoint" />
          </mxGeometry>
        </mxCell>
        <mxCell id="ykgIP5ubuIwZVs8_AAUS-20" style="edgeStyle=elbowEdgeStyle;rounded=0;orthogonalLoop=1;jettySize=auto;html=1;elbow=vertical;curved=0;dashed=1;" edge="1" parent="1">
          <mxGeometry relative="1" as="geometry">
            <mxPoint x="415" y="367" as="sourcePoint" />
            <mxPoint x="165" y="367" as="targetPoint" />
          </mxGeometry>
        </mxCell>
        <mxCell id="ykgIP5ubuIwZVs8_AAUS-10" value="" style="html=1;points=[];perimeter=orthogonalPerimeter;outlineConnect=0;targetShapes=umlLifeline;portConstraint=eastwest;newEdgeStyle={&quot;edgeStyle&quot;:&quot;elbowEdgeStyle&quot;,&quot;elbow&quot;:&quot;vertical&quot;,&quot;curved&quot;:0,&quot;rounded&quot;:0};" vertex="1" parent="1">
          <mxGeometry x="415" y="240" width="10" height="140" as="geometry" />
        </mxCell>
        <mxCell id="ykgIP5ubuIwZVs8_AAUS-11" value="" style="endArrow=none;dashed=1;html=1;dashPattern=1 3;strokeWidth=2;rounded=0;entryX=0.5;entryY=1;entryDx=0;entryDy=0;" edge="1" parent="1" target="ykgIP5ubuIwZVs8_AAUS-12">
          <mxGeometry width="50" height="50" relative="1" as="geometry">
            <mxPoint x="680" y="420" as="sourcePoint" />
            <mxPoint x="680" y="190" as="targetPoint" />
          </mxGeometry>
        </mxCell>
        <mxCell id="ykgIP5ubuIwZVs8_AAUS-18" style="edgeStyle=elbowEdgeStyle;rounded=0;orthogonalLoop=1;jettySize=auto;html=1;elbow=vertical;curved=0;dashed=1;" edge="1" parent="1">
          <mxGeometry relative="1" as="geometry">
            <mxPoint x="675" y="337" as="sourcePoint" />
            <mxPoint x="425" y="337" as="targetPoint" />
          </mxGeometry>
        </mxCell>
        <mxCell id="ykgIP5ubuIwZVs8_AAUS-12" value="" style="html=1;points=[];perimeter=orthogonalPerimeter;outlineConnect=0;targetShapes=umlLifeline;portConstraint=eastwest;newEdgeStyle={&quot;edgeStyle&quot;:&quot;elbowEdgeStyle&quot;,&quot;elbow&quot;:&quot;vertical&quot;,&quot;curved&quot;:0,&quot;rounded&quot;:0};" vertex="1" parent="1">
          <mxGeometry x="675" y="230" width="10" height="120" as="geometry" />
        </mxCell>
        <mxCell id="ykgIP5ubuIwZVs8_AAUS-14" value="Product Search()" style="text;html=1;align=center;verticalAlign=middle;resizable=0;points=[];autosize=1;strokeColor=none;fillColor=none;" vertex="1" parent="1">
          <mxGeometry x="185" y="248" width="110" height="30" as="geometry" />
        </mxCell>
        <mxCell id="ykgIP5ubuIwZVs8_AAUS-16" value="Request Product Data()" style="text;html=1;align=center;verticalAlign=middle;resizable=0;points=[];autosize=1;strokeColor=none;fillColor=none;" vertex="1" parent="1">
          <mxGeometry x="445" y="268" width="150" height="30" as="geometry" />
        </mxCell>
        <mxCell id="ykgIP5ubuIwZVs8_AAUS-19" value="Return Product Data Info()" style="text;html=1;align=center;verticalAlign=middle;resizable=0;points=[];autosize=1;strokeColor=none;fillColor=none;" vertex="1" parent="1">
          <mxGeometry x="470" y="310" width="160" height="30" as="geometry" />
        </mxCell>
        <mxCell id="ykgIP5ubuIwZVs8_AAUS-21" value="display product()" style="text;html=1;align=center;verticalAlign=middle;resizable=0;points=[];autosize=1;strokeColor=none;fillColor=none;" vertex="1" parent="1">
          <mxGeometry x="205" y="338" width="110" height="30" as="geometry" />
        </mxCell>
        <mxCell id="ykgIP5ubuIwZVs8_AAUS-22" value="&lt;font style=&quot;font-size: 16px;&quot;&gt;Figure : Sequence Diagram for search product&lt;/font&gt;" style="text;html=1;align=center;verticalAlign=middle;resizable=0;points=[];autosize=1;strokeColor=none;fillColor=none;" vertex="1" parent="1">
          <mxGeometry x="215" y="468" width="350" height="30" as="geometry" />
        </mxCell>
        <mxCell id="ykgIP5ubuIwZVs8_AAUS-23" value="" style="swimlane;startSize=0;" vertex="1" parent="1">
          <mxGeometry x="100" y="90" width="660" height="440" as="geometry" />
        </mxCell>
      </root>
    </mxGraphModel>
  </diagram>
</mxfile>
